<?xml version="1.0" standalone="no"?><!DOCTYPE svg PUBLIC "-//W3C//DTD SVG 1.1//EN" "http://www.w3.org/Graphics/SVG/1.1/DTD/svg11.dtd"><svg t="1715764618836" class="icon" viewBox="0 0 1024 1024" version="1.1" xmlns="http://www.w3.org/2000/svg" p-id="1562" xmlns:xlink="http://www.w3.org/1999/xlink" width="32" height="32"><path d="M188.940554 657.318046c59.066502 118.674899 181.895925 200.320339 323.691656 200.320338 141.795731 0 264.625154-81.64544 323.691657-200.320338H188.940554zM719.997178 497.820427c41.183983 0 74.42018-33.236197 74.42018-74.239549 0-41.003352-33.416828-74.239548-74.42018-74.239548-41.183983 0-74.42018 33.236197-74.42018 74.239548 0 41.003352 33.236197 74.239548 74.42018 74.239549zM305.086611 497.820427c41.183983 0 74.42018-33.236197 74.42018-74.239549 0-41.003352-33.416828-74.239548-74.42018-74.239548-41.183983 0-74.42018 33.236197-74.42018 74.239548 0 41.003352 33.416828 74.239548 74.42018 74.239549z" fill="#333333" p-id="1563"></path><path d="M512.63221 3.61263C232.653378 3.61263 4.696419 231.027694 4.696419 510.284001 4.696419 789.720938 232.472747 1016.955371 512.451579 1016.955371c279.978832 0 507.75516-227.415064 507.755159-506.67137 0.180632-279.256306-227.595696-506.671371-507.574528-506.671371z m0 947.954137C268.779679 951.566767 70.446287 753.594638 70.446287 510.284001 70.446287 267.153995 268.779679 69.181866 512.63221 69.181866s442.185923 197.972129 442.185924 441.282766c0 243.130005-198.333392 441.102134-442.185924 441.102135z" fill="#333333" p-id="1564"></path></svg>