<?xml version="1.0" standalone="no"?><!DOCTYPE svg PUBLIC "-//W3C//DTD SVG 1.1//EN" "http://www.w3.org/Graphics/SVG/1.1/DTD/svg11.dtd"><svg t="1715933164512" class="icon" viewBox="0 0 1024 1024" version="1.1" xmlns="http://www.w3.org/2000/svg" p-id="4318" xmlns:xlink="http://www.w3.org/1999/xlink" width="32" height="32"><path d="M85.333333 213.333333a128 128 0 0 1 128-128h597.333334a128 128 0 0 1 128 128v597.333334a128 128 0 0 1-128 128H213.333333a128 128 0 0 1-128-128V213.333333z m128-42.666666a42.666667 42.666667 0 0 0-42.666666 42.666666v597.333334a42.666667 42.666667 0 0 0 42.666666 42.666666h597.333334a42.666667 42.666667 0 0 0 42.666666-42.666666V213.333333a42.666667 42.666667 0 0 0-42.666666-42.666666H213.333333z" fill="#75C82B" p-id="4319"></path><path d="M525.354667 372.565333a42.666667 42.666667 0 0 1 42.666666-42.666666h79.957334a42.666667 42.666667 0 1 1 0 85.333333h-79.957334a42.666667 42.666667 0 0 1-42.666666-42.666667z m-235.562667 131.968a85.333333 85.333333 0 0 1 116.437333 0l101.76 95.018667 41.813334-38.997333a85.333333 85.333333 0 0 1 116.437333 0l130.858667 122.154666a42.666667 42.666667 0 1 1-58.197334 62.378667L608 622.933333l-37.461333 34.986667 26.581333 24.789333a42.666667 42.666667 0 1 1-58.24 62.378667l-190.890667-178.133333-190.890666 178.133333a42.666667 42.666667 0 1 1-58.197334-62.378667l190.890667-178.176z" fill="#75C82B" p-id="4320"></path></svg>